# xmcd
#
# Track frame offsets: 
#        150
#        19442
#        30980
#        46280
#        71307
#        101667
#        115802
#        132787
#        152745
#        166455
#        183665
#        196645
#        210720
#        225902
#
# Disc length: 3172 seconds
#
# Revision: 1
# Processed by: cddbd v1.5.2PL0 Copyright (c) Steve Scherf et al.
# Submitted via: ExactAudioCopy v1.0b3
#
DISCID=b00c620e
DTITLE=Nick Moss and The Flip Tops - First Offense
DYEAR=1998
DGENRE=Blues
TTITLE0=Try To Treat You Right
TTITLE1=Night Has Fallen
TTITLE2=Baby's Got Ways
TTITLE3=She Keeps Me Worried
TTITLE4=No Hide Nor Hair
TTITLE5=You Right And I'm Wrong
TTITLE6=Just Stay In Bed
TTITLE7=Chez Sweet Petite Pea
TTITLE8=Junged By Twelve
TTITLE9=Tossin' And Turning
TTITLE10=Just In From Texas
TTITLE11=Crazy Mixed Up Baby
TTITLE12=All Night Jump
TTITLE13=Lost Paycheck Blues
EXTD=
EXTT0=
EXTT1=
EXTT2=
EXTT3=
EXTT4=
EXTT5=
EXTT6=
EXTT7=
EXTT8=
EXTT9=
EXTT10=
EXTT11=
EXTT12=
EXTT13=
PLAYORDER=
